<?xml version="1.0" encoding="utf-8"?>
<!-- Generator: Adobe Illustrator 23.1.1, SVG Export Plug-In . SVG Version: 6.00 Build 0)  -->
<svg version="1.1" id="Camada_1" xmlns="http://www.w3.org/2000/svg" xmlns:xlink="http://www.w3.org/1999/xlink" x="0px" y="0px"
	 viewBox="0 0 174.3 176.3" style="enable-background:new 0 0 174.3 176.3;" xml:space="preserve">
<style type="text/css">
	.st0{font-family:'Arial-BoldMT';}
	.st1{font-size:25.75px;}
	.st2{letter-spacing:4.9;}
	.st3{fill:none;stroke:#000000;stroke-width:4;stroke-miterlimit:10;}
</style>
<title>Ativo 1</title>
<g>
	<g id="Camada_1-2">
		<text transform="matrix(1.23 0 0 1 -1 156.4404)" class="st0 st1 st2">PL</text>
		<text transform="matrix(1.23 0 0 1 43.4766 156.4404)" class="st0 st1 st2">a</text>
		<text transform="matrix(1.23 0 0 1 64.8174 156.4404)" class="st0 st1 st2">w</text>
		<text transform="matrix(1.23 0 0 1 94.854 156.4404)" class="st0 st1 st2">y</text>
		<text transform="matrix(1.23 0 0 1 115.7886 156.4404)" class="st0 st1 st2">ers</text>
		<path class="st3" d="M49,70.4V12.5h47.1c19.6,0,35.5,13,35.5,28.9s-15.9,28.9-35.5,28.9H49z"/>
		<path class="st3" d="M61.9,59.8V23h34.2c12.5,0,22.6,8.3,22.6,18.4s-10.1,18.4-22.6,18.4L61.9,59.8z"/>
		<path class="st3" d="M74.8,49.3V33.6h21.3c5.3,0,9.7,3.5,9.7,7.9s-4.3,7.9-9.7,7.9H74.8z"/>
		<path class="st3" d="M96.1,2H36.1v117.3h25.8V80.9h34.2c26.8,0,48.4-17.7,48.4-39.5l0,0C144.6,19.7,122.9,2,96.1,2z"/>
		<line class="st3" x1="49" y1="70.4" x2="49" y2="119.3"/>
	</g>
</g>
</svg>
